<svg xmlns="http://www.w3.org/2000/svg" xmlns:xlink="http://www.w3.org/1999/xlink" width="34.827" height="34.827" viewBox="0 0 34.827 34.827">
  <defs>
    <filter id="Oval" x="0" y="0" width="34.827" height="34.827" filterUnits="userSpaceOnUse">
      <feOffset dy="1.2" input="SourceAlpha"/>
      <feGaussianBlur stdDeviation="1.5" result="blur"/>
      <feFlood flood-opacity="0.078"/>
      <feComposite operator="in" in2="blur"/>
      <feComposite in="SourceGraphic"/>
    </filter>
  </defs>
  <g id="Arrow" transform="translate(4.5 3.3)">
    <g transform="matrix(1, 0, 0, 1, -4.5, -3.3)" filter="url(#Oval)">
      <path id="Oval-2" data-name="Oval" d="M12.913,0A12.913,12.913,0,1,1,0,12.913,12.913,12.913,0,0,1,12.913,0Z" transform="translate(30.33 29.13) rotate(180)" fill="#fff"/>
    </g>
    <path id="Path" d="M12.6,7.5A1.453,1.453,0,0,0,14,6a1.453,1.453,0,0,0-1.4-1.5H4.78L6.59,2.561a1.577,1.577,0,0,0,0-2.121,1.335,1.335,0,0,0-1.98,0l-4.2,4.5a1.577,1.577,0,0,0,0,2.121l4.2,4.5a1.335,1.335,0,0,0,1.98,0,1.577,1.577,0,0,0,0-2.121L4.78,7.5Z" transform="translate(5.913 6.913)" fill="#04264d"/>
  </g>
</svg>
